<svg xmlns="http://www.w3.org/2000/svg" width="27" height="27" fill="none"><g clip-path="url(#a)"><path d="M6.196.88A7.472 7.472 0 0 0 3.06 2.073c-.512.343-1.493 1.324-1.836 1.84A6.956 6.956 0 0 0 0 7.9c0 1.798.717 3.48 2.874 6.77 1.73 2.627 2.88 3.914 7.936 8.881.829.812 1.656 1.661 1.846 1.893.564.686.596.712.844.712s.285-.031.844-.712c.19-.232 1.033-1.096 1.872-1.92 5.015-4.925 6.186-6.232 7.91-8.853C26.288 11.375 27 9.698 27 7.9c0-1.45-.406-2.769-1.229-3.998-.337-.506-1.323-1.492-1.83-1.83A7.508 7.508 0 0 0 21.463.997c-.57-.132-1.925-.19-2.479-.106-2.125.327-3.86 1.419-4.988 3.143-.148.232-.317.512-.37.617-.052.11-.11.2-.126.2s-.074-.09-.127-.2c-.332-.696-1.06-1.592-1.75-2.167-1.33-1.102-2.87-1.65-4.578-1.635-.38.005-.76.021-.849.032Zm1.746.971a6.2 6.2 0 0 1 4.044 2.394c.38.506.834 1.424.992 2.004.058.232.148.464.19.512.174.2.58.158.701-.069.037-.058.11-.28.164-.49.058-.206.232-.639.39-.96 1.85-3.808 6.866-4.636 9.856-1.624a6.012 6.012 0 0 1 1.756 4.002c.069 1.656-.496 3.07-2.42 6.065-1.825 2.831-3.022 4.197-7.816 8.89a82.803 82.803 0 0 0-1.698 1.704l-.601.622-.575-.596a70.582 70.582 0 0 0-1.698-1.703c-5.041-4.936-6.19-6.265-8.226-9.524-1.203-1.92-1.756-3.122-1.978-4.298-.121-.659-.08-1.66.1-2.346.802-3.054 3.718-5.015 6.819-4.583Z"/><path fill="#F0F0F0" d="M5.975 1.925C2.584 2.537.322 5.97 1.16 9.229c.311 1.218 1.007 2.552 2.61 4.983 1.55 2.347 2.416 3.328 6.65 7.54l3.08 3.06 3.074-3.06c1.693-1.681 3.302-3.305 3.576-3.611 1.566-1.74 2.347-2.758 3.544-4.641 1.872-2.932 2.441-4.446 2.299-6.086a6.124 6.124 0 0 0-3.396-4.978c-.443-.221-1.24-.464-1.756-.538-.68-.1-1.82-.042-2.447.122-2.1.553-3.765 2.178-4.335 4.229-.148.533-.253.66-.554.66-.285 0-.411-.117-.506-.465-.332-1.186-.78-1.977-1.608-2.81a5.898 5.898 0 0 0-3.212-1.71c-.533-.094-1.666-.1-2.204 0Z"/></g><defs><clipPath id="a"><path fill="#fff" d="M0 0h27v27H0z"/></clipPath></defs></svg>